<svg width="33" height="32" viewBox="0 0 33 32" fill="none" xmlns="http://www.w3.org/2000/svg">
<g clip-path="url(#clip0_2_48615)">
<path fill-rule="evenodd" clip-rule="evenodd" d="M6.67319 3.84375C4.83998 3.84375 3.4835 5.44829 3.54424 7.18838C3.60253 8.86013 3.52679 11.0253 2.98174 12.791C2.43474 14.5616 1.51029 15.6837 0 15.8277V17.4537C1.51029 17.598 2.43474 18.7195 2.98168 20.4904C3.52679 22.2561 3.60247 24.4212 3.54418 26.093C3.48343 27.8328 4.83992 29.4376 6.67344 29.4376H25.4578C27.291 29.4376 28.6472 27.8331 28.5865 26.093C28.5282 24.4212 28.6039 22.2561 29.149 20.4904C29.696 18.7195 30.6182 17.5976 32.1285 17.4537V15.8277C30.6182 15.6834 29.696 14.5619 29.149 12.791C28.6038 11.0255 28.5282 8.86013 28.5865 7.18838C28.6472 5.44854 27.291 3.84375 25.4578 3.84375H6.67294H6.67319ZM21.7821 19.5985C21.7821 21.9945 19.9949 23.4476 17.0289 23.4476H11.9801C11.8357 23.4476 11.6972 23.3902 11.595 23.2881C11.4929 23.186 11.4356 23.0475 11.4356 22.9031V10.3784C11.4356 10.234 11.4929 10.0955 11.595 9.99333C11.6972 9.89121 11.8357 9.83384 11.9801 9.83384H17.0002C19.4733 9.83384 21.0963 11.1734 21.0963 13.2302C21.0963 14.6738 20.0045 15.9661 18.6135 16.1925V16.2678C20.507 16.4755 21.7821 17.787 21.7821 19.5985ZM16.4784 11.5601H13.5996V15.6263H16.0243C17.8987 15.6263 18.9322 14.8716 18.9322 13.5225C18.932 12.2582 18.0434 11.5601 16.4784 11.5601ZM13.5996 17.2397V21.7208H16.5843C18.5359 21.7208 19.5696 20.9378 19.5696 19.4661C19.5696 17.9945 18.5069 17.2395 16.4588 17.2395H13.5996V17.2397Z" fill="#7727ED"/>
</g>
<defs>
<clipPath id="clip0_2_48615">
<rect width="32.1285" height="25.6" fill="white" transform="translate(0 3.84375)"/>
</clipPath>
</defs>
</svg>
