<svg width="42" height="42" viewBox="0 0 42 42" fill="none" xmlns="http://www.w3.org/2000/svg">
<g filter="url(#filter0_d_2965_235643)">
<rect x="3.5" y="1.5" width="35" height="35" rx="5.5" stroke="#E1E3EA" shape-rendering="crispEdges"/>
<path d="M27.6654 22.6964V17.5C27.6654 14.6716 27.6654 13.2574 26.7465 12.3787C25.8276 11.5 24.3487 11.5 21.3909 11.5H20.6065C17.6487 11.5 16.1698 11.5 15.2509 12.3787C14.332 13.2574 14.332 14.6716 14.332 17.5V24.625" stroke="#CFB16D" stroke-width="1.5" stroke-linecap="round"/>
<path d="M27.6654 22.75H16.2928C15.2099 22.75 14.332 23.5895 14.332 24.625C14.332 25.6605 15.2099 26.5 16.2928 26.5H27.6654" stroke="#CFB16D" stroke-width="1.5" stroke-linecap="round"/>
<path d="M27.6678 26.5C26.5849 26.5 25.707 25.6605 25.707 24.625C25.707 23.5895 26.5849 22.75 27.6678 22.75" stroke="#CFB16D" stroke-width="1.5" stroke-linecap="round"/>
<path d="M23.3516 15.25L18.6457 15.25" stroke="#CFB16D" stroke-width="1.5" stroke-linecap="round" stroke-linejoin="round"/>
<path d="M21 18.25L18.6471 18.25" stroke="#CFB16D" stroke-width="1.5" stroke-linecap="round" stroke-linejoin="round"/>
</g>
<defs>
<filter id="filter0_d_2965_235643" x="0" y="0" width="42" height="42" filterUnits="userSpaceOnUse" color-interpolation-filters="sRGB">
<feFlood flood-opacity="0" result="BackgroundImageFix"/>
<feColorMatrix in="SourceAlpha" type="matrix" values="0 0 0 0 0 0 0 0 0 0 0 0 0 0 0 0 0 0 127 0" result="hardAlpha"/>
<feOffset dy="2"/>
<feGaussianBlur stdDeviation="1.5"/>
<feComposite in2="hardAlpha" operator="out"/>
<feColorMatrix type="matrix" values="0 0 0 0 0 0 0 0 0 0 0 0 0 0 0 0 0 0 0.04 0"/>
<feBlend mode="normal" in2="BackgroundImageFix" result="effect1_dropShadow_2965_235643"/>
<feBlend mode="normal" in="SourceGraphic" in2="effect1_dropShadow_2965_235643" result="shape"/>
</filter>
</defs>
</svg>
