<svg width="32" height="32" viewBox="0 0 32 32" fill="none" xmlns="http://www.w3.org/2000/svg">
<g clip-path="url(#clip0_2_48630)">
<path d="M11.266 0H16.4953V23.9673C13.8168 24.474 11.8449 24.6733 9.71145 24.6733C3.32464 24.6667 0 21.8133 0 16.3333C0 11.0534 3.52653 7.62665 8.99133 7.62665C9.83934 7.62665 10.4854 7.69339 11.266 7.89332V0ZM11.4493 12.2125C10.8368 12.0125 10.3322 11.9458 9.68603 11.9458C7.04118 11.9458 5.51348 13.5591 5.51348 16.3864C5.51348 19.1392 6.97395 20.6591 9.65246 20.6591C10.2312 20.6591 10.7023 20.6265 11.4493 20.5265V12.2125Z" fill="#2BA977"/>
<path d="M25.0472 8.27012V20.2702C25.0472 24.4028 24.7376 26.3902 23.829 28.1036C22.981 29.7508 21.8639 30.7896 19.5555 31.9368L14.7031 29.6502C17.0115 28.5775 18.1287 27.6295 18.8421 26.1829C19.589 24.7036 19.8246 22.9902 19.8246 18.4835V8.27022H25.0472V8.27012ZM19.2976 0H24.5269V5.31335H19.2976V0Z" fill="#2BA977"/>
</g>
<defs>
<clipPath id="clip0_2_48630">
<rect width="25.1264" height="32" fill="white"/>
</clipPath>
</defs>
</svg>
