<svg width="20" height="21" viewBox="0 0 20 21" fill="none" xmlns="http://www.w3.org/2000/svg">
<path d="M4.80993 8.83073L9.08493 2.16406H4.69326C4.20769 2.16404 3.74177 2.35579 3.39686 2.69757C3.05196 3.03935 2.85599 3.50352 2.85159 3.98906V6.06406C2.84874 6.54713 3.03754 7.01163 3.37659 7.35573L4.80993 8.83073Z" fill="#A1A5B7"/>
<path opacity="0.3" d="M15.3109 2.16406H10.5776L5.71094 9.7224L6.54427 10.5557C7.13602 11.1552 7.46826 11.9634 7.46927 12.8057V17.1641C7.45551 17.4814 7.5327 17.796 7.69176 18.0709C7.85081 18.3458 8.0851 18.5696 8.36704 18.7158C8.64899 18.862 8.96684 18.9246 9.28318 18.8963C9.59951 18.8679 9.90116 18.7498 10.1526 18.5557L11.2943 17.7224C11.5027 17.5756 11.6727 17.3809 11.7902 17.1547C11.9077 16.9284 11.9691 16.6773 11.9693 16.4224V12.9141C11.9627 12.4606 12.0521 12.0108 12.2317 11.5943C12.4112 11.1778 12.6768 10.804 13.0109 10.4974L16.5359 7.35573C16.7322 7.18309 16.8889 6.97013 16.9953 6.73139C17.1017 6.49265 17.1554 6.23376 17.1526 5.9724V3.98906C17.1482 3.50352 16.9522 3.03935 16.6073 2.69757C16.2624 2.35579 15.7965 2.16404 15.3109 2.16406V2.16406Z" fill="#A1A5B7"/>
</svg>
