<svg width="40" height="40" viewBox="0 0 40 40" fill="none" xmlns="http://www.w3.org/2000/svg">
<g filter="url(#filter0_d_2965_235660)">
<rect x="3.5" y="1.5" width="33" height="33" rx="5.5" stroke="#E1E3EA" shape-rendering="crispEdges"/>
<path d="M22.6162 19.1063L26.7487 20.4113C26.978 20.4708 27.1816 20.6035 27.3285 20.7893C27.4754 20.975 27.5576 21.2037 27.5627 21.4405C27.5678 21.6773 27.4955 21.9093 27.3567 22.1012C27.2179 22.2931 27.0202 22.4344 26.7937 22.5038L25.6162 22.9313C25.4677 22.9828 25.333 23.0678 25.2225 23.1796C25.112 23.2914 25.0286 23.4271 24.9787 23.5763L24.5437 24.7538C24.4714 24.97 24.3329 25.158 24.1478 25.2912C23.9627 25.4244 23.7405 25.496 23.5125 25.496C23.2845 25.496 23.0623 25.4244 22.8772 25.2912C22.6921 25.158 22.5536 24.97 22.4812 24.7538L21.1912 20.5388C21.1256 20.34 21.1163 20.127 21.1643 19.9232C21.2124 19.7195 21.316 19.5331 21.4637 19.3847C21.6113 19.2363 21.7971 19.1317 22.0006 19.0826C22.2041 19.0334 22.4172 19.0416 22.6162 19.1063ZM20.1187 20.8388C20.0153 20.503 19.992 20.1476 20.0506 19.8012C20.1092 19.4547 20.2481 19.1268 20.4562 18.8438C20.6627 18.5612 20.9322 18.3307 21.2434 18.1705C21.5546 18.0104 21.8988 17.925 22.2487 17.9213C22.4808 17.9215 22.7114 17.9595 22.9312 18.0338L26.0662 19.0238V14.0513C26.0672 13.5969 25.9785 13.1469 25.8051 12.727C25.6317 12.307 25.377 11.9255 25.0558 11.6042C24.7345 11.283 24.353 11.0283 23.933 10.8549C23.5131 10.6815 23.0631 10.5928 22.6087 10.5938H16.1137C15.1968 10.5938 14.3173 10.958 13.6689 11.6064C13.0205 12.2548 12.6562 13.1343 12.6562 14.0513V20.5613C12.6622 21.475 13.0288 22.3495 13.6764 22.9942C14.3239 23.639 15.2 24.0018 16.1137 24.0038H21.0862L20.1187 20.8388Z" fill="#CFB16D"/>
</g>
<defs>
<filter id="filter0_d_2965_235660" x="0" y="0" width="40" height="40" filterUnits="userSpaceOnUse" color-interpolation-filters="sRGB">
<feFlood flood-opacity="0" result="BackgroundImageFix"/>
<feColorMatrix in="SourceAlpha" type="matrix" values="0 0 0 0 0 0 0 0 0 0 0 0 0 0 0 0 0 0 127 0" result="hardAlpha"/>
<feOffset dy="2"/>
<feGaussianBlur stdDeviation="1.5"/>
<feComposite in2="hardAlpha" operator="out"/>
<feColorMatrix type="matrix" values="0 0 0 0 0 0 0 0 0 0 0 0 0 0 0 0 0 0 0.04 0"/>
<feBlend mode="normal" in2="BackgroundImageFix" result="effect1_dropShadow_2965_235660"/>
<feBlend mode="normal" in="SourceGraphic" in2="effect1_dropShadow_2965_235660" result="shape"/>
</filter>
</defs>
</svg>
