<svg width="16" height="16" viewBox="0 0 16 16" fill="none" xmlns="http://www.w3.org/2000/svg">
<path d="M11.9925 11.3277V6.42525C11.9906 5.80529 11.7418 5.21128 11.3005 4.7729C10.8593 4.33452 10.2614 4.08738 9.63738 4.08542H2.90841V3.45404C2.90839 2.54182 3.2716 1.66663 3.91875 1.01951C4.5659 0.372388 5.44445 0.00588528 6.36262 0H12.5234C13.4454 0 14.3297 0.363906 14.9817 1.01166C15.6337 1.65942 16 2.53797 16 3.45404V7.91085C15.9981 8.81924 15.6361 9.6903 14.9923 10.3354C14.3486 10.9805 13.475 11.3477 12.5607 11.3575L11.9925 11.3277ZM9.63738 2.97121C10.5594 2.97121 11.4437 3.33512 12.0957 3.98288C12.7477 4.63063 13.114 5.50918 13.114 6.42525V10.1393C13.6131 10.0109 14.056 9.72336 14.3747 9.32082C14.6934 8.91828 14.8704 8.42296 14.8785 7.91085V3.45404C14.8765 2.83408 14.6278 2.24007 14.1865 1.80169C13.7453 1.36331 13.1474 1.11616 12.5234 1.1142H6.36262C5.82126 1.11355 5.29631 1.29878 4.87665 1.63855C4.457 1.97832 4.16843 2.45174 4.05981 2.97864L9.63738 2.97121ZM6.55701 16C6.31274 16.0012 6.0719 15.9429 5.85554 15.8302C5.63918 15.7176 5.4539 15.554 5.31589 15.3537L4.64299 14.4104C4.61968 14.3747 4.58743 14.3457 4.54942 14.3262C4.51141 14.3066 4.46893 14.2973 4.42617 14.299H3.51402C3.05432 14.3039 2.59821 14.2182 2.17208 14.0468C1.74596 13.8754 1.35827 13.6218 1.03146 13.3005C0.704659 12.9793 0.445223 12.5969 0.268173 12.1754C0.0911229 11.7539 -2.65715e-05 11.3017 5.81037e-09 10.8449V6.42525C-2.65715e-05 5.96852 0.0911229 5.51631 0.268173 5.09481C0.445223 4.67331 0.704659 4.29088 1.03146 3.96965C1.35827 3.64842 1.74596 3.39478 2.17208 3.2234C2.59821 3.05202 3.05432 2.9663 3.51402 2.97121H9.67476C10.5968 2.97121 11.4811 3.33512 12.1331 3.98288C12.7851 4.63063 13.1514 5.50918 13.1514 6.42525V10.8449C13.1514 11.761 12.7851 12.6395 12.1331 13.2873C11.4811 13.9351 10.5968 14.299 9.67476 14.299H8.68785C8.6452 14.298 8.60299 14.3077 8.56509 14.3271C8.5272 14.3466 8.49485 14.3752 8.47103 14.4104L7.79813 15.3537C7.66012 15.554 7.47483 15.7176 7.25848 15.8302C7.04212 15.9429 6.80128 16.0012 6.55701 16ZM3.51402 4.08542C3.20188 4.08149 2.89204 4.13906 2.60243 4.2548C2.31281 4.37053 2.04915 4.54214 1.82668 4.75971C1.60422 4.97728 1.42735 5.23649 1.30631 5.52236C1.18527 5.80824 1.12246 6.11511 1.1215 6.42525V10.8449C1.11946 11.1566 1.18013 11.4655 1.29993 11.7536C1.41972 12.0416 1.59624 12.303 1.81911 12.5224C2.04198 12.7417 2.30672 12.9146 2.59778 13.0309C2.88883 13.1472 3.20034 13.2046 3.51402 13.1996H4.42617C4.64929 13.1985 4.86934 13.2514 5.06732 13.3536C5.26531 13.4558 5.43529 13.6044 5.56262 13.7864L6.22804 14.6852C6.26512 14.7378 6.31434 14.7807 6.37159 14.8104C6.42883 14.8402 6.49242 14.8558 6.55701 14.8561C6.6216 14.8558 6.68519 14.8402 6.74243 14.8104C6.79967 14.7807 6.8489 14.7378 6.88598 14.6852L7.5514 13.7419C7.68361 13.568 7.85574 13.4281 8.05342 13.3338C8.25111 13.2395 8.46863 13.1935 8.68785 13.1996H9.63738C10.262 13.1996 10.861 12.9531 11.3027 12.5143C11.7444 12.0755 11.9925 11.4803 11.9925 10.8598V6.42525C11.9906 5.80529 11.7418 5.21128 11.3005 4.7729C10.8593 4.33452 10.2614 4.08738 9.63738 4.08542H3.51402ZM3.94766 7.99999C3.80866 7.99999 3.67278 8.04094 3.55721 8.11767C3.44163 8.19439 3.35155 8.30344 3.29836 8.43102C3.24516 8.55861 3.23125 8.699 3.25836 8.83444C3.28548 8.96989 3.35242 9.0943 3.45071 9.19195C3.54899 9.2896 3.67422 9.3561 3.81055 9.38305C3.94688 9.40999 4.08819 9.39616 4.21661 9.34331C4.34504 9.29046 4.4548 9.20097 4.53202 9.08615C4.60925 8.97132 4.65047 8.83632 4.65047 8.69823C4.64852 8.51364 4.57385 8.33716 4.44247 8.20664C4.31109 8.07611 4.13346 8.00192 3.94766 7.99999ZM6.56449 7.99999C6.42685 7.99736 6.29147 8.03495 6.17515 8.10808C6.05882 8.18122 5.96668 8.28668 5.91015 8.41139C5.85363 8.53609 5.83521 8.67454 5.85718 8.80955C5.87916 8.94456 5.94055 9.07019 6.03376 9.17084C6.12696 9.27149 6.24786 9.34273 6.38146 9.37572C6.51506 9.4087 6.65546 9.40199 6.78525 9.3564C6.91504 9.31081 7.02849 9.22835 7.11152 9.11927C7.19456 9.01019 7.24352 8.87928 7.25234 8.74279C7.25736 8.6489 7.24344 8.55495 7.21141 8.46647C7.17937 8.37799 7.12986 8.29676 7.06577 8.22756C7.00169 8.15836 6.92434 8.10258 6.83825 8.0635C6.75217 8.02442 6.65909 8.00283 6.56449 7.99999ZM9.17383 7.99999C9.03483 7.99999 8.89895 8.04094 8.78337 8.11767C8.6678 8.19439 8.57772 8.30344 8.52452 8.43102C8.47133 8.55861 8.45741 8.699 8.48453 8.83444C8.51165 8.96989 8.57858 9.0943 8.67687 9.19195C8.77516 9.2896 8.90039 9.3561 9.03672 9.38305C9.17305 9.40999 9.31436 9.39616 9.44278 9.34331C9.5712 9.29046 9.68097 9.20097 9.75819 9.08615C9.83542 8.97132 9.87663 8.83632 9.87663 8.69823C9.87469 8.51364 9.80002 8.33716 9.66864 8.20664C9.53726 8.07611 9.35962 8.00192 9.17383 7.99999Z" fill="#78829D"/>
</svg>
