<svg width="40" height="40" viewBox="0 0 40 40" fill="none" xmlns="http://www.w3.org/2000/svg">
<g filter="url(#filter0_d_2965_235618)">
<rect x="3" y="1" width="34" height="34" rx="6" fill="#CFB16D" shape-rendering="crispEdges"/>
<rect x="3.5" y="1.5" width="33" height="33" rx="5.5" stroke="#CFB16D" shape-rendering="crispEdges"/>
<path d="M26.75 16.4695L21.1056 12.0014C20.4576 11.4891 19.5424 11.4891 18.8944 12.0014L13.25 16.4695" stroke="white" stroke-width="1.5" stroke-linecap="round" stroke-linejoin="round"/>
<path d="M14.3711 15.5781V22.0844C14.3711 23.3534 15.4 24.3823 16.669 24.3823H23.3285C24.5975 24.3823 25.6264 23.3534 25.6264 22.0844V15.5781" stroke="white" stroke-width="1.5" stroke-linecap="round" stroke-linejoin="round"/>
<path d="M18.0586 24.3851V20.53C18.0586 19.7499 18.6913 19.1172 19.4714 19.1172H20.5273C21.3074 19.1172 21.9401 19.7499 21.9401 20.53V24.3851" stroke="white" stroke-width="1.5" stroke-linecap="round" stroke-linejoin="round"/>
</g>
<defs>
<filter id="filter0_d_2965_235618" x="0" y="0" width="40" height="40" filterUnits="userSpaceOnUse" color-interpolation-filters="sRGB">
<feFlood flood-opacity="0" result="BackgroundImageFix"/>
<feColorMatrix in="SourceAlpha" type="matrix" values="0 0 0 0 0 0 0 0 0 0 0 0 0 0 0 0 0 0 127 0" result="hardAlpha"/>
<feOffset dy="2"/>
<feGaussianBlur stdDeviation="1.5"/>
<feComposite in2="hardAlpha" operator="out"/>
<feColorMatrix type="matrix" values="0 0 0 0 0 0 0 0 0 0 0 0 0 0 0 0 0 0 0.04 0"/>
<feBlend mode="normal" in2="BackgroundImageFix" result="effect1_dropShadow_2965_235618"/>
<feBlend mode="normal" in="SourceGraphic" in2="effect1_dropShadow_2965_235618" result="shape"/>
</filter>
</defs>
</svg>
