<svg width="32" height="32" viewBox="0 0 32 32" fill="none" xmlns="http://www.w3.org/2000/svg">
<path d="M30.9428 7.30456C30.9543 7.34697 30.9601 7.39068 30.9602 7.43461V14.2615C30.9602 14.3491 30.9371 14.4352 30.893 14.511C30.849 14.5869 30.7857 14.6497 30.7096 14.6933L24.9676 17.9923V24.5311C24.9676 24.7091 24.8728 24.8734 24.7182 24.963L12.7323 31.8484C12.7048 31.8639 12.6749 31.8739 12.645 31.8845C12.6337 31.8882 12.6231 31.895 12.6113 31.8981C12.5275 31.9202 12.4394 31.9202 12.3557 31.8981C12.3419 31.8944 12.3295 31.8869 12.3164 31.882C12.2889 31.872 12.2603 31.8633 12.2341 31.8484L0.250655 24.963C0.174528 24.9193 0.111274 24.8564 0.0672681 24.7806C0.0232625 24.7048 6.03189e-05 24.6188 0 24.5311L0 4.05039C0 4.00559 0.00623519 3.96204 0.0174585 3.91973C0.0211997 3.90542 0.0299289 3.89235 0.0349171 3.87804C0.0442699 3.85191 0.0529991 3.82515 0.0667166 3.80088C0.0760694 3.78471 0.0897868 3.77164 0.10101 3.75671C0.115351 3.7368 0.128445 3.71626 0.14528 3.69884C0.159621 3.68453 0.178327 3.67395 0.194538 3.66151C0.21262 3.64657 0.228832 3.6304 0.249408 3.61858H0.250031L6.24205 0.175872C6.31792 0.132305 6.40392 0.109375 6.49146 0.109375C6.579 0.109375 6.665 0.132305 6.74087 0.175872L12.7329 3.61858H12.7341C12.7541 3.63102 12.7709 3.64657 12.789 3.66089C12.8052 3.67333 12.8233 3.68453 12.8376 3.69822C12.8551 3.71626 12.8676 3.7368 12.8825 3.75671C12.8931 3.77164 12.9075 3.78471 12.9162 3.80088C12.9305 3.82577 12.9387 3.85191 12.9486 3.87804C12.9536 3.89235 12.9623 3.90542 12.9661 3.92035C12.9776 3.96275 12.9834 4.00647 12.9835 4.05039V16.8425L17.9767 13.9734V7.43398C17.9767 7.39043 17.9829 7.34625 17.9941 7.30456C17.9985 7.28963 18.0066 7.27656 18.0116 7.26225C18.0216 7.23612 18.0303 7.20937 18.044 7.1851C18.0534 7.16892 18.0671 7.15585 18.0777 7.14092C18.0927 7.12101 18.1051 7.10048 18.1226 7.08306C18.1369 7.06875 18.155 7.05817 18.1712 7.04572C18.1899 7.03079 18.2061 7.01461 18.2261 7.00279H18.2267L24.2194 3.56009C24.2952 3.51646 24.3812 3.49349 24.4688 3.49349C24.5563 3.49349 24.6423 3.51646 24.7182 3.56009L30.7102 7.00279C30.7314 7.01524 30.7476 7.03079 30.7663 7.0451C30.7819 7.05755 30.8 7.06875 30.8143 7.08243C30.8318 7.10048 30.8443 7.12101 30.8592 7.14092C30.8704 7.15585 30.8842 7.16892 30.8929 7.1851C30.9072 7.20937 30.9153 7.23612 30.9253 7.26225C30.9309 7.27656 30.939 7.28963 30.9428 7.30456ZM29.9614 13.9734V8.29637L27.8645 9.50098L24.9676 11.1654V16.8425L29.962 13.9734H29.9614ZM23.9693 24.2431V18.5623L21.1198 20.1862L12.9829 24.8205V30.5548L23.9693 24.2431ZM0.998878 4.91216V24.2431L11.984 30.5542V24.8211L6.24517 21.58L6.2433 21.5787L6.24081 21.5775C6.22148 21.5663 6.20527 21.5501 6.18718 21.5364C6.17159 21.524 6.15351 21.514 6.1398 21.5004L6.13855 21.4985C6.12234 21.4829 6.11111 21.4636 6.0974 21.4462C6.08493 21.4294 6.06996 21.4151 6.05998 21.3977L6.05936 21.3958C6.04814 21.3771 6.04128 21.3548 6.03317 21.3336C6.02507 21.3149 6.01447 21.2975 6.00948 21.2776V21.277C6.00324 21.2533 6.002 21.2284 5.9995 21.2042C5.99701 21.1855 5.99202 21.1668 5.99202 21.1482V7.78118L3.09577 6.11614L0.998878 4.91278V4.91216ZM6.49208 1.18261L1.49956 4.05039L6.49084 6.91817L11.4827 4.04977L6.49084 1.18261H6.49208ZM9.08842 19.0799L11.9847 17.4161V4.91216L9.88777 6.11676L6.9909 7.78118V20.2852L9.08842 19.0799ZM24.4688 4.56683L19.4769 7.43461L24.4688 10.3024L29.46 7.43398L24.4688 4.56683ZM23.9693 11.1654L21.0725 9.50098L18.9756 8.29637V13.9734L21.8718 15.6372L23.9693 16.8425V11.1654ZM12.4829 23.9587L19.8048 19.7874L23.4649 17.703L18.4767 14.8371L12.7335 18.1367L7.49907 21.1438L12.4829 23.9587Z" fill="#FF2D20"/>
</svg>
