<svg width="40" height="40" viewBox="0 0 40 40" fill="none" xmlns="http://www.w3.org/2000/svg">
<g filter="url(#filter0_d_2965_235625)">
<rect x="3.5" y="1.5" width="33" height="33" rx="5.5" stroke="#E1E3EA" shape-rendering="crispEdges"/>
<path d="M22.2505 12.75H18.118C17.927 12.7385 17.7476 12.6545 17.6165 12.515C17.4855 12.3756 17.4127 12.1914 17.413 12V11.25C17.4127 11.0586 17.4855 10.8744 17.6165 10.735C17.7476 10.5955 17.927 10.5115 18.118 10.5H22.2505C22.4402 10.5133 22.6177 10.5982 22.7472 10.7374C22.8767 10.8766 22.9485 11.0599 22.948 11.25V12C22.9485 12.1901 22.8767 12.3734 22.7472 12.5126C22.6177 12.6518 22.4402 12.7367 22.2505 12.75ZM26.7505 15.8925V21.3075C26.7666 22.3784 26.357 23.4119 25.6117 24.1811C24.8664 24.9502 23.8464 25.3922 22.7755 25.41H17.233C16.17 25.3942 15.156 24.9603 14.4106 24.2023C13.6652 23.4443 13.2484 22.4231 13.2505 21.36V15.945C13.235 14.971 13.5717 14.0242 14.1987 13.2787C14.8257 12.5332 15.7008 12.0392 16.663 11.8875V12.06C16.6628 12.4489 16.8136 12.8227 17.0836 13.1025C17.3537 13.3824 17.7219 13.5464 18.1105 13.56H22.2505C22.6392 13.5464 23.0073 13.3824 23.2774 13.1025C23.5474 12.8227 23.6983 12.4489 23.698 12.06V11.94C24.5791 12.1665 25.3587 12.682 25.9121 13.4041C26.4655 14.1261 26.7607 15.0129 26.7505 15.9225V15.8925ZM20.6605 20.73C20.6625 20.5781 20.6046 20.4315 20.4993 20.322C20.3941 20.2125 20.2499 20.1489 20.098 20.145H16.678C16.5352 20.1612 16.4034 20.2295 16.3077 20.3367C16.212 20.4439 16.1591 20.5826 16.1591 20.7262C16.1591 20.87 16.212 21.0086 16.3077 21.1158C16.4034 21.223 16.5352 21.2913 16.678 21.3075H20.098C20.243 21.3022 20.3808 21.2433 20.4847 21.1421C20.5887 21.0409 20.6513 20.9048 20.6605 20.76V20.73ZM23.6605 18.0375C23.6627 17.8881 23.6068 17.7437 23.5047 17.6346C23.4026 17.5255 23.2622 17.4602 23.113 17.4525H16.678C16.5352 17.4687 16.4034 17.537 16.3077 17.6442C16.212 17.7514 16.1591 17.89 16.1591 18.0338C16.1591 18.1775 16.212 18.3161 16.3077 18.4233C16.4034 18.5305 16.5352 18.5988 16.678 18.615H23.083C23.1579 18.614 23.2318 18.5983 23.3006 18.5688C23.3694 18.5392 23.4316 18.4964 23.4839 18.4428C23.5361 18.3891 23.5773 18.3257 23.605 18.2562C23.6327 18.1867 23.6465 18.1124 23.6455 18.0375V18L23.6605 18.0375Z" fill="#1A1C37"/>
</g>
<defs>
<filter id="filter0_d_2965_235625" x="0" y="0" width="40" height="40" filterUnits="userSpaceOnUse" color-interpolation-filters="sRGB">
<feFlood flood-opacity="0" result="BackgroundImageFix"/>
<feColorMatrix in="SourceAlpha" type="matrix" values="0 0 0 0 0 0 0 0 0 0 0 0 0 0 0 0 0 0 127 0" result="hardAlpha"/>
<feOffset dy="2"/>
<feGaussianBlur stdDeviation="1.5"/>
<feComposite in2="hardAlpha" operator="out"/>
<feColorMatrix type="matrix" values="0 0 0 0 0 0 0 0 0 0 0 0 0 0 0 0 0 0 0.04 0"/>
<feBlend mode="normal" in2="BackgroundImageFix" result="effect1_dropShadow_2965_235625"/>
<feBlend mode="normal" in="SourceGraphic" in2="effect1_dropShadow_2965_235625" result="shape"/>
</filter>
</defs>
</svg>
