<svg width="16" height="16" viewBox="0 0 16 16" fill="none" xmlns="http://www.w3.org/2000/svg">
<path d="M10.9172 1.04186C11.4479 1.04186 11.9733 1.14638 12.4636 1.34946C12.9539 1.55253 13.3993 1.85019 13.7746 2.22542C14.1498 2.60066 14.4475 3.04613 14.6505 3.53639C14.8536 4.02666 14.9581 4.55213 14.9581 5.08279V10.9172C14.9581 11.4479 14.8536 11.9733 14.6505 12.4636C14.4475 12.9539 14.1498 13.3993 13.7746 13.7746C13.3993 14.1498 12.9539 14.4475 12.4636 14.6505C11.9733 14.8536 11.4479 14.9581 10.9172 14.9581H5.08279C4.01107 14.9581 2.98324 14.5324 2.22542 13.7746C1.4676 13.0168 1.04186 11.9889 1.04186 10.9172V5.08279C1.04186 4.01107 1.4676 2.98324 2.22542 2.22542C2.98324 1.4676 4.01107 1.04186 5.08279 1.04186H10.9172ZM4.52465 8.69209H7.30791V11.4753C7.30791 11.6589 7.38082 11.8349 7.51062 11.9647C7.64041 12.0945 7.81645 12.1674 8 12.1674C8.18355 12.1674 8.35959 12.0945 8.48938 11.9647C8.61918 11.8349 8.69209 11.6589 8.69209 11.4753V8.69209H11.4753C11.6589 8.69209 11.8349 8.61918 11.9647 8.48938C12.0945 8.35959 12.1674 8.18355 12.1674 8C12.1674 7.81645 12.0945 7.64041 11.9647 7.51062C11.8349 7.38082 11.6589 7.30791 11.4753 7.30791H8.69209V4.52465C8.69209 4.3411 8.61918 4.16506 8.48938 4.03527C8.35959 3.90547 8.18355 3.83256 8 3.83256C7.81645 3.83256 7.64041 3.90547 7.51062 4.03527C7.38082 4.16506 7.30791 4.3411 7.30791 4.52465V7.30791H4.52465C4.3411 7.30791 4.16506 7.38082 4.03527 7.51062C3.90547 7.64041 3.83256 7.81645 3.83256 8C3.83256 8.18355 3.90547 8.35959 4.03527 8.48938C4.16506 8.61918 4.3411 8.69209 4.52465 8.69209ZM10.9172 0H5.08279C3.73475 0 2.44192 0.535507 1.48871 1.48871C0.535507 2.44192 0 3.73475 0 5.08279V10.9172C0 12.2652 0.535507 13.5581 1.48871 14.5113C2.44192 15.4645 3.73475 16 5.08279 16H10.9172C12.2652 16 13.5581 15.4645 14.5113 14.5113C15.4645 13.5581 16 12.2652 16 10.9172V5.08279C16 3.73475 15.4645 2.44192 14.5113 1.48871C13.5581 0.535507 12.2652 0 10.9172 0Z" fill="#1A1C37"/>
</svg>
