<svg width="32" height="32" viewBox="0 0 32 32" fill="none" xmlns="http://www.w3.org/2000/svg">
<g clip-path="url(#clip0_2_48625)">
<path d="M29.1034 1.66644C28.6533 2.74129 28.0823 3.76198 27.3946 4.69935C24.3855 1.69143 20.3011 0 16.0458 0C7.24355 0 0 7.249 0 16.0603C0 20.4555 1.80047 24.6632 4.98463 27.6962L5.57645 28.2211C8.46887 30.6583 12.1323 31.9997 15.9125 31.9997C24.2813 31.9997 31.3165 25.4423 31.9125 17.0851C32.3501 12.994 31.1498 7.81975 29.1034 1.66644ZM7.26439 27.7878C7.00599 28.1086 6.61005 28.2961 6.19745 28.2961C5.44308 28.2961 4.82626 27.6753 4.82626 26.9213C4.82626 26.1672 5.44725 25.5465 6.19745 25.5465C6.51003 25.5465 6.81844 25.6548 7.06017 25.8548C7.64783 26.3297 7.73952 27.2004 7.26439 27.7878ZM29.0367 22.9802C25.0774 28.2586 16.621 26.4797 11.1988 26.7338C11.1988 26.7338 10.236 26.7921 9.26908 26.9504C9.26908 26.9504 9.63168 26.7963 10.1026 26.6171C13.9078 25.2923 15.7083 25.034 18.0214 23.8467C22.3767 21.6303 26.682 16.781 27.578 11.7359C25.9193 16.5894 20.8929 20.7596 16.3126 22.4552C13.1743 23.6134 7.50612 24.7382 7.50612 24.7382L7.2769 24.6174C3.41756 22.7385 3.30086 14.3772 10.3152 11.6775C13.3868 10.4944 16.3251 11.1443 19.6426 10.3527C23.1852 9.51118 27.2821 6.85322 28.9492 3.38703C30.8164 8.9321 33.0628 17.6142 29.0367 22.9802Z" fill="#77BC1F"/>
</g>
<defs>
<clipPath id="clip0_2_48625">
<rect width="32" height="32" fill="white"/>
</clipPath>
</defs>
</svg>
