<svg width="40" height="40" viewBox="0 0 40 40" fill="none" xmlns="http://www.w3.org/2000/svg">
<g filter="url(#filter0_d_2965_235634)">
<rect x="3.5" y="1.5" width="33" height="33" rx="5.5" stroke="#E1E3EA" shape-rendering="crispEdges"/>
<path d="M23.8025 12H16.1975C15.2169 12 14.2764 12.3896 13.583 13.083C12.8896 13.7764 12.5 14.7169 12.5 15.6975V20.3025C12.5 21.2831 12.8896 22.2236 13.583 22.917C14.2764 23.6104 15.2169 24 16.1975 24H23.8025C24.2881 24 24.7689 23.9044 25.2175 23.7185C25.6661 23.5327 26.0737 23.2604 26.417 22.917C26.7604 22.5737 27.0327 22.1661 27.2185 21.7175C27.4044 21.2689 27.5 20.7881 27.5 20.3025V15.6975C27.5 15.2119 27.4044 14.7311 27.2185 14.2825C27.0327 13.8339 26.7604 13.4263 26.417 13.083C26.0737 12.7396 25.6661 12.4673 25.2175 12.2815C24.7689 12.0956 24.2881 12 23.8025 12ZM21.5525 18.6825L19.25 20.0925C19.1287 20.1662 18.9899 20.206 18.848 20.2079C18.706 20.2097 18.5662 20.1736 18.443 20.1032C18.3198 20.0328 18.2177 19.9307 18.1472 19.8074C18.0768 19.6842 18.0406 19.5444 18.0425 19.4025V16.5975C18.0406 16.4556 18.0768 16.3158 18.1472 16.1926C18.2177 16.0693 18.3198 15.9672 18.443 15.8968C18.5662 15.8264 18.706 15.7903 18.848 15.7921C18.9899 15.794 19.1287 15.8338 19.25 15.9075L21.59 17.3175C21.7077 17.3887 21.8049 17.4892 21.8721 17.6092C21.9394 17.7292 21.9743 17.8646 21.9736 18.0021C21.9728 18.1397 21.9364 18.2747 21.8678 18.3939C21.7993 18.5132 21.701 18.6126 21.5825 18.6825H21.5525Z" fill="#F1416C"/>
</g>
<defs>
<filter id="filter0_d_2965_235634" x="0" y="0" width="40" height="40" filterUnits="userSpaceOnUse" color-interpolation-filters="sRGB">
<feFlood flood-opacity="0" result="BackgroundImageFix"/>
<feColorMatrix in="SourceAlpha" type="matrix" values="0 0 0 0 0 0 0 0 0 0 0 0 0 0 0 0 0 0 127 0" result="hardAlpha"/>
<feOffset dy="2"/>
<feGaussianBlur stdDeviation="1.5"/>
<feComposite in2="hardAlpha" operator="out"/>
<feColorMatrix type="matrix" values="0 0 0 0 0 0 0 0 0 0 0 0 0 0 0 0 0 0 0.04 0"/>
<feBlend mode="normal" in2="BackgroundImageFix" result="effect1_dropShadow_2965_235634"/>
<feBlend mode="normal" in="SourceGraphic" in2="effect1_dropShadow_2965_235634" result="shape"/>
</filter>
</defs>
</svg>
